<?xml version="1.0" standalone="no"?>
<!DOCTYPE svg PUBLIC "-//W3C//DTD SVG 20010904//EN"
 "http://www.w3.org/TR/2001/REC-SVG-20010904/DTD/svg10.dtd">
<svg version="1.0" xmlns="http://www.w3.org/2000/svg"
 width="192.000000pt" height="192.000000pt" viewBox="0 0 192.000000 192.000000"
 preserveAspectRatio="xMidYMid meet">
<metadata>
Created by potrace 1.11, written by Peter Selinger 2001-2013
</metadata>
<g transform="translate(0.000000,192.000000) scale(0.100000,-0.100000)"
fill="#000000" stroke="none">
<path d="M318 1546 c-1 -30 0 -70 3 -90 3 -19 3 -40 -1 -46 -3 -6 -3 -33 0
-60 4 -32 2 -54 -4 -59 -14 -11 -76 -20 -76 -10 0 4 -16 3 -35 -1 -19 -4 -37
-4 -40 0 -3 4 -21 4 -40 0 -19 -4 -37 -4 -40 0 -3 4 -20 4 -39 0 -19 -4 -37
-5 -40 -2 -4 3 -6 -65 -6 -151 0 -144 1 -157 19 -167 13 -6 22 -7 26 0 3 5 11
7 18 4 22 -8 107 -10 107 -2 0 4 11 3 25 -2 15 -6 26 -6 30 0 4 7 13 6 25 0
13 -7 21 -7 25 0 4 7 13 7 26 0 10 -6 19 -7 20 -3 3 38 -1 305 -5 312 -3 5 28
10 69 10 93 2 85 2 174 -1 72 -3 75 -4 82 -30 4 -16 3 -30 -1 -33 -5 -3 -5
-19 0 -35 5 -17 5 -30 0 -30 -5 0 -5 -13 0 -30 5 -17 5 -30 0 -30 -5 0 -5 -12
-1 -27 5 -16 5 -37 1 -48 -4 -11 -3 -26 2 -32 8 -9 4 -15 -13 -22 -13 -5 -28
-5 -33 -1 -5 5 -19 4 -32 0 -13 -5 -24 -6 -24 -2 0 4 -13 7 -29 7 -16 0 -27
-3 -24 -7 2 -5 -7 -4 -21 2 -15 5 -28 6 -31 0 -3 -6 -15 -6 -30 0 -14 5 -27 5
-30 1 -3 -5 -14 -7 -24 -4 -10 3 -21 0 -25 -5 -10 -17 -9 -293 2 -304 5 -5 30
-9 56 -8 25 0 53 1 61 0 21 0 43 0 58 1 52 2 124 -5 134 -12 7 -7 9 -20 3 -38
-4 -16 -4 -34 0 -42 5 -7 5 -20 1 -28 -4 -9 -5 -27 -1 -41 4 -14 3 -32 -1 -41
-4 -8 -4 -21 1 -29 4 -7 4 -24 0 -36 -6 -14 -5 -26 1 -29 5 -4 7 -11 4 -16 -4
-5 58 -9 154 -9 146 0 161 2 162 18 0 9 0 87 0 172 -1 85 -1 162 -1 170 1 94
0 132 -5 139 -3 5 -1 12 4 16 7 4 7 15 1 30 -6 15 -6 25 0 25 5 0 5 12 0 30
-5 17 -5 32 0 35 5 3 5 16 0 30 -6 15 -6 27 0 30 6 3 6 15 0 30 -6 15 -6 25 0
25 5 0 5 12 0 30 -9 30 -9 30 34 30 40 0 66 -15 77 -45 10 -27 205 -304 212
-302 5 1 16 16 25 32 9 17 20 32 23 35 3 3 47 67 98 143 l91 137 39 0 40 0 1
-192 c0 -106 1 -200 1 -208 0 -8 -1 -99 -1 -202 -1 -103 1 -192 5 -198 4 -6
65 -10 161 -10 l154 0 0 640 0 640 -160 0 -159 0 -33 -47 c-18 -26 -35 -52
-38 -58 -6 -13 -103 -158 -110 -165 -3 -3 -34 -49 -69 -103 -35 -54 -69 -96
-74 -94 -6 2 -15 12 -21 23 -6 10 -14 21 -17 24 -3 3 -16 24 -29 48 -13 23
-27 42 -31 42 -3 0 -12 14 -19 30 -7 17 -16 30 -21 30 -5 0 -9 6 -9 13 0 7 -8
22 -18 33 -9 10 -33 44 -52 74 -19 30 -38 57 -42 58 -5 2 -8 10 -8 18 0 8 -3
14 -7 14 -5 0 -16 14 -25 30 l-17 30 -320 0 -319 0 -4 -54z"/>
<path d="M0 486 l0 -166 159 0 159 0 4 46 c2 25 1 47 -2 49 -4 2 -4 28 -1 57
3 29 5 79 3 111 -3 55 -4 57 -27 53 -14 -3 -27 0 -31 5 -3 6 -11 6 -17 2 -7
-5 -23 -7 -37 -6 -36 3 -78 3 -135 0 -27 -1 -56 2 -62 7 -10 7 -13 -27 -13
-158z"/>
</g>
</svg>
